<svg width="75" height="76" viewBox="0 0 75 76" fill="none" xmlns="http://www.w3.org/2000/svg">
<path d="M73.0301 25.9529L73.0535 25.9293C73.038 25.9139 73.022 25.8992 73.0065 25.8839C71.1819 20.5211 68.1396 15.6064 64.0166 11.4835C56.9336 4.40062 47.5168 0.5 37.5 0.5C33.3284 0.5 29.2616 1.17887 25.4233 2.48012L25.4205 2.4775C25.4187 2.47925 25.4171 2.48112 25.4153 2.48287C20.0403 4.30638 15.1144 7.3525 10.9834 11.4836C3.90062 18.5663 0 27.9834 0 38C0 42.1693 0.678125 46.2338 1.97787 50.0701L1.95862 50.0896C1.9715 50.1023 1.98462 50.1144 1.9975 50.1271C3.82262 55.4855 6.8635 60.3964 10.9836 64.5165C18.0663 71.5994 27.4834 75.5 37.5 75.5C41.6698 75.5 45.7347 74.8218 49.5715 73.5218L49.5915 73.5415C49.6045 73.5284 49.6169 73.5149 49.6299 73.5017C54.9871 71.6765 59.8971 68.636 64.0165 64.5166C71.0994 57.4336 75 48.0168 75 38C75 33.8391 74.3248 29.7825 73.0301 25.9529ZM59.752 29.7073C64.9032 39.3711 64.0101 51.1037 58.0457 59.898C59.3096 56.1719 59.9581 52.2228 59.9339 48.1748C59.8926 41.255 57.8965 35.3813 54.2132 29.7073H46.553C50.7646 34.827 53.0747 41.5051 53.1147 48.2152C53.1575 55.3671 50.6149 62.141 45.9245 67.4771L46.0866 60.3515C38.0889 64.0276 29.0749 63.7273 21.434 60.1074C23.0031 60.3194 24.8665 60.4275 27.3364 60.4275C34.0925 60.5406 40.1321 58.4856 46.0866 54.4261V47.0482C35.7319 55.538 20.2254 55.772 9.59125 47.7009L15.77 47.242C9.67638 37.079 10.5286 24.1401 17.4159 14.824C17.4245 14.8165 17.4328 14.8088 17.4414 14.8014C15.8639 18.9088 15.0511 23.315 15.0781 27.8441C15.1187 34.648 17.0492 41.6325 20.6152 47.2421H28.4591C24.2475 42.1225 21.9374 34.5137 21.8972 27.8035C21.8544 20.6219 24.4179 13.8208 29.1459 8.4745C29.1694 8.46788 29.1929 8.46175 29.2164 8.45512L29.2445 15.5024C39.0486 10.3602 51.0176 11.4096 59.8011 17.6101C56.1165 16.2929 52.6651 15.6646 47.6758 15.5913C40.8924 15.4915 34.9895 17.3573 29.2445 21.1184V28.9683C34.3669 24.7573 41.5126 22.345 47.7164 22.4074C55.7452 22.4881 61.6461 24.9256 66.9202 29.537L59.752 29.7073Z" fill="#FC0B65"/>
</svg>
